HIERARCHY
ROOT hip
{
	OFFSET 0.000000 -149.730927 -4.954829
	CHANNELS 6 Xposition Yposition Zposition Zrotation Xrotation Yrotation
	JOINT chest
	{
		OFFSET 0.000000 1.232370 4.954829
		CHANNELS 3 Zrotation Xrotation Yrotation
		JOINT neck
		{
			OFFSET 0.000000 6.156469 11.719190
			CHANNELS 3 Zrotation Xrotation Yrotation
			JOINT upperNeck
			{
				OFFSET -0.005596 4.916550 1.289021
				CHANNELS 3 Zrotation Xrotation Yrotation
				JOINT head
				{
					OFFSET 0.005596 5.264259 2.109870
					CHANNELS 3 Zrotation Xrotation Yrotation
					JOINT hplume
					{
						OFFSET 0.000436 7.801170 -6.158082
						CHANNELS 3 Zrotation Xrotation Yrotation
						End Site
						{
							OFFSET 5.641092 -5.483479 2.662390
						}
					}
					JOINT lEye
					{
						OFFSET 3.504127 8.374199 3.826759
						CHANNELS 3 Zrotation Xrotation Yrotation
						End Site
						{
							OFFSET -5.641092 -5.483479 2.662390
						}
					}
					JOINT rEye
					{
						OFFSET -3.504127 8.374199 3.826759
						CHANNELS 3 Zrotation Xrotation Yrotation
						End Site
						{
							OFFSET 7.071361 -2.489611 -2.333646
						}
					}
				}
			}
		}
		JOINT lCollar
		{
			OFFSET 4.145280 0.975359 7.559040
			CHANNELS 3 Zrotation Xrotation Yrotation
			JOINT lWing1
			{
				OFFSET 2.926081 -0.975359 -0.731520
				CHANNELS 3 Zrotation Xrotation Yrotation
				JOINT lWing2
				{
					OFFSET 2.682239 -2.194561 0.975360
					CHANNELS 3 Zrotation Xrotation Yrotation
					End Site
					{
						OFFSET -7.071361 -2.489611 -2.333646
					}
				}
			}
		}
		JOINT rCollar
		{
			OFFSET -4.145280 0.975359 7.559040
			CHANNELS 3 Zrotation Xrotation Yrotation
			JOINT rWing1
			{
				OFFSET -2.926081 -0.975359 -0.731520
				CHANNELS 3 Zrotation Xrotation Yrotation
				JOINT rWing2
				{
					OFFSET -2.682239 -2.194561 0.975360
					CHANNELS 3 Zrotation Xrotation Yrotation
					End Site
					{
						OFFSET 4.795626 -6.474880 4.722280
					}
				}
			}
		}
	}
	JOINT lThigh
	{
		OFFSET 4.145280 0.744690 -1.141172
		CHANNELS 3 Zrotation Xrotation Yrotation
		JOINT lLeg
		{
			OFFSET 0.731520 -6.339840 1.950721
			CHANNELS 3 Zrotation Xrotation Yrotation
			JOINT lShin
			{
				OFFSET 1.463040 -9.997440 -0.487680
				CHANNELS 3 Zrotation Xrotation Yrotation
				JOINT lFoot
				{
					OFFSET 1.574012 -7.813023 5.744861
					CHANNELS 3 Zrotation Xrotation Yrotation
					JOINT lThumb1
					{
						OFFSET -0.229454 -3.039442 0.129506
						CHANNELS 3 Zrotation Xrotation Yrotation
						JOINT lThumb2
						{
							OFFSET -0.178246 -0.992136 -2.748092
							CHANNELS 3 Zrotation Xrotation Yrotation
							JOINT lThumb3
							{
								OFFSET -0.095220 -0.664537 -1.832362
								CHANNELS 3 Zrotation Xrotation Yrotation
								End Site
								{
									OFFSET 4.223162 0.662270 4.550159
								}
							}
						}
					}
					JOINT lRing1
					{
						OFFSET 2.521528 -1.600640 2.842160
						CHANNELS 3 Zrotation Xrotation Yrotation
						JOINT lRing2
						{
							OFFSET 1.107150 -0.222918 1.523975
							CHANNELS 3 Zrotation Xrotation Yrotation
							JOINT lRing3
							{
								OFFSET 2.225600 -1.357067 2.736080
								CHANNELS 3 Zrotation Xrotation Yrotation
								End Site
								{
									OFFSET 1.018519 0.478268 7.016429
								}
							}
						}
					}
					JOINT lMid1
					{
						OFFSET 0.163641 -2.029359 3.651635
						CHANNELS 3 Zrotation Xrotation Yrotation
						JOINT lMid2
						{
							OFFSET 0.576608 -0.330354 3.296961
							CHANNELS 3 Zrotation Xrotation Yrotation
							JOINT lMid3
							{
								OFFSET 0.362152 -0.990478 3.139173
								CHANNELS 3 Zrotation Xrotation Yrotation
								End Site
								{
									OFFSET -3.061849 0.554712 5.892425
								}
							}
						}
					}
					JOINT lIndex1
					{
						OFFSET -2.608454 -1.947916 3.683042
						CHANNELS 3 Zrotation Xrotation Yrotation
						JOINT lIndex2
						{
							OFFSET -0.682849 -0.536814 2.338889
							CHANNELS 3 Zrotation Xrotation Yrotation
							JOINT lIndex3
							{
								OFFSET -0.837006 -0.958121 2.571901
								CHANNELS 3 Zrotation Xrotation Yrotation
								End Site
								{
									OFFSET -4.795626 -6.474880 4.722280
								}
							}
						}
					}
				}
			}
		}
	}
	JOINT rThigh
	{
		OFFSET -4.145280 0.744690 -1.141172
		CHANNELS 3 Zrotation Xrotation Yrotation
		JOINT rLeg
		{
			OFFSET -0.731520 -6.339840 1.950721
			CHANNELS 3 Zrotation Xrotation Yrotation
			JOINT rShin
			{
				OFFSET -1.463040 -9.997440 -0.487680
				CHANNELS 3 Zrotation Xrotation Yrotation
				JOINT rFoot
				{
					OFFSET -1.574012 -7.813023 5.744861
					CHANNELS 3 Zrotation Xrotation Yrotation
					JOINT rThumb1
					{
						OFFSET 0.229454 -3.039442 0.129506
						CHANNELS 3 Zrotation Xrotation Yrotation
						JOINT rThumb2
						{
							OFFSET 0.178246 -0.992136 -2.748092
							CHANNELS 3 Zrotation Xrotation Yrotation
							JOINT rThumb3
							{
								OFFSET 0.095220 -0.664537 -1.832362
								CHANNELS 3 Zrotation Xrotation Yrotation
								End Site
								{
									OFFSET -4.223162 0.662270 4.550159
								}
							}
						}
					}
					JOINT rRing1
					{
						OFFSET -2.521528 -1.600640 2.842160
						CHANNELS 3 Zrotation Xrotation Yrotation
						JOINT rRing2
						{
							OFFSET -1.107150 -0.222918 1.523975
							CHANNELS 3 Zrotation Xrotation Yrotation
							JOINT rRing3
							{
								OFFSET -2.225600 -1.357067 2.736080
								CHANNELS 3 Zrotation Xrotation Yrotation
								End Site
								{
									OFFSET -1.018519 0.478268 7.016429
								}
							}
						}
					}
					JOINT rMid1
					{
						OFFSET -0.163641 -2.029359 3.651635
						CHANNELS 3 Zrotation Xrotation Yrotation
						JOINT rMid2
						{
							OFFSET -0.576608 -0.330354 3.296961
							CHANNELS 3 Zrotation Xrotation Yrotation
							JOINT rMid3
							{
								OFFSET -0.362152 -0.990478 3.139173
								CHANNELS 3 Zrotation Xrotation Yrotation
								End Site
								{
									OFFSET 3.061849 0.554712 5.892425
								}
							}
						}
					}
					JOINT rIndex1
					{
						OFFSET 2.608454 -1.947916 3.683042
						CHANNELS 3 Zrotation Xrotation Yrotation
						JOINT rIndex2
						{
							OFFSET 0.682849 -0.536814 2.338889
							CHANNELS 3 Zrotation Xrotation Yrotation
							JOINT rIndex3
							{
								OFFSET 0.837006 -0.958121 2.571901
								CHANNELS 3 Zrotation Xrotation Yrotation
								End Site
								{
									OFFSET 0.000000 18.467709 -18.922054
								}
							}
						}
					}
				}
			}
		}
	}
	JOINT tplume
	{
		OFFSET 0.000000 3.670769 -4.798771
		CHANNELS 3 Zrotation Xrotation Yrotation
		End Site
		{
			OFFSET 0.000000 18.467709 -18.922054
		}
	}
}
MOTION
Frames:	6
Frame Time:	0.0333333
0.000000 -2.122325 0.000000 0.000000 0.000000 0.000000 0.000000 0.000000 0.000000 0.000000 0.000000 0.000000 0.000000 0.000000 0.000000 0.000000 0.000000 0.000000 0.000000 0.000000 0.000000 0.000000 0.000000 0.000000 0.000000 0.000000 0.000000 0.000000 0.000000 0.000000 0.000000 0.000000 0.000000 0.000000 0.000000 0.000000 0.000000 0.000000 0.000000 0.000000 0.000000 0.000000 0.000000 0.000000 0.000000 0.778037 -21.840076 -2.532749 -4.491361 35.395908 8.231007 0.471776 -12.902575 -1.468005 0.000000 0.000000 0.000000 0.000000 0.000000 0.000000 0.000000 0.000000 0.000000 0.000000 0.000000 0.000000 0.000000 0.000000 0.000000 0.000000 0.000000 0.000000 0.000000 0.000000 0.000000 0.000000 0.000000 0.000000 0.000000 0.000000 0.000000 0.000000 0.000000 0.000000 0.000000 0.000000 0.000000 0.000000 0.000000 0.000000 0.000000 0.000000 0.000000 -0.778037 -21.840076 2.532749 4.491361 35.395908 -8.231007 -0.471776 -12.902575 1.468005 0.000000 0.000000 0.000000 0.000000 0.000000 0.000000 0.000000 0.000000 0.000000 0.000000 0.000000 0.000000 0.000000 0.000000 0.000000 0.000000 0.000000 0.000000 0.000000 0.000000 0.000000 0.000000 0.000000 0.000000 0.000000 0.000000 0.000000 0.000000 0.000000 0.000000 0.000000 0.000000 0.000000 0.000000 0.000000 0.000000 0.000000 0.000000 0.000000 0.000000 0.000000 0.000000 
0.000000 -2.104695 0.000000 -0.056000 0.070500 0.000069 0.155389 -0.487879 0.255017 -0.080381 0.714827 0.707205 -0.245498 0.089081 0.384427 0.091392 -0.715339 0.296602 -0.596448 -0.229087 -0.351571 0.000000 0.000000 0.000000 0.000000 0.000000 0.000000 -0.008103 0.298912 0.223177 -0.325437 0.463961 0.414387 -0.290266 0.902534 0.946456 0.259122 0.106323 -0.063084 0.017883 0.247311 -0.265683 -0.040704 0.547687 -0.629600 0.592832 -21.993151 -2.622499 -4.301752 34.554749 8.023726 0.451769 -11.966267 -1.359889 0.080779 0.337772 -0.077006 0.000000 0.000000 0.000000 0.005465 -0.111862 0.000965 0.000000 0.000000 0.000000 0.131528 -0.183685 0.000211 0.248321 -0.332512 0.000484 0.188881 -0.253338 0.000418 0.043807 -0.277279 -0.010546 0.031882 -0.292618 -0.008437 0.059729 -0.384245 -0.010258 -0.089374 -0.257157 -0.052535 -0.081330 -0.271375 -0.000193 -0.086347 -0.307611 -0.000232 -0.650036 -21.383703 2.270379 4.520292 35.361595 -8.301597 -0.469489 -12.830600 1.460611 -0.008158 -0.152714 0.058601 -0.013949 -0.223542 -0.003239 0.000000 0.000000 0.000000 0.000000 0.000000 0.000000 -0.142613 -0.199166 -0.000248 -0.248321 -0.332512 -0.000484 -0.219341 -0.294193 -0.000563 -0.051138 -0.323710 0.012291 -0.041105 -0.376082 0.010543 -0.063252 -0.406925 0.010851 0.094730 -0.275429 0.052564 0.121522 -0.405482 0.000430 0.107687 -0.383633 0.000361 -0.055940 0.041738 0.875582 
0.000000 -2.067432 0.000000 -0.208002 0.263998 0.000958 0.578067 -1.790469 0.956170 -0.299141 2.652544 2.636664 -0.911892 0.313074 1.431405 0.339770 -2.621742 1.112976 -2.223599 -0.855226 -1.312055 0.000000 0.000000 0.000000 0.000000 0.000000 0.000000 -0.031792 1.140595 0.827440 -1.248337 1.731866 1.538667 -1.164657 3.388497 3.543111 0.953855 0.425379 -0.232646 0.098312 0.925417 -0.985186 -0.103117 2.066987 -2.366148 0.087897 -22.418318 -2.873080 -3.829774 32.320175 7.496153 0.391100 -9.494517 -1.074425 0.297209 1.287572 -0.282237 0.000000 0.000000 0.000000 0.020308 -0.415489 0.003637 0.000000 0.000000 0.000000 0.495208 -0.691544 0.002989 0.924482 -1.237809 0.009162 0.710157 -0.952401 0.005903 0.163578 -1.036983 -0.038356 0.119325 -1.096082 -0.030599 0.222633 -1.434303 -0.036253 -0.332342 -0.963923 -0.189185 -0.302726 -1.010013 -0.002668 -0.323268 -1.151489 -0.003249 -0.304983 -20.157101 1.548893 4.610413 35.320286 -8.500201 -0.464946 -12.704742 1.448317 -0.027827 -0.534233 0.207910 -0.051876 -0.830295 -0.012307 0.000000 0.000000 0.000000 0.000000 0.000000 0.000000 -0.536386 -0.749041 -0.003506 -0.924482 -1.237809 -0.009162 -0.823330 -1.104134 -0.007933 -0.190721 -1.209456 0.044448 -0.153469 -1.406106 0.037879 -0.235684 -1.518548 0.038210 0.352241 -1.031786 0.189590 0.452080 -1.508114 0.005950 0.402568 -1.433851 0.005038 -0.221596 0.091508 3.255765 
0.000000 -2.033981 0.000000 -0.432020 0.553484 0.004173 1.203684 -3.661320 2.015328 -0.625663 5.510736 5.506108 -1.894231 0.607459 2.982431 0.707934 -5.358550 2.345473 -4.637182 -1.764367 -2.759883 0.000000 0.000000 0.000000 0.000000 0.000000 0.000000 -0.080047 2.441838 1.715832 -2.697171 3.618733 3.197026 -2.681153 7.121715 7.441302 1.961919 0.957271 -0.479197 0.284852 1.938917 -2.042159 -0.073208 4.371901 -4.984125 -0.662726 -23.063143 -3.260826 -3.227121 29.124983 6.794301 0.285623 -5.993231 -0.668459 0.610333 2.754217 -0.581698 0.000000 0.000000 0.000000 0.042209 -0.862937 0.007719 0.000000 0.000000 0.000000 1.044806 -1.458737 0.013301 1.925959 -2.577280 0.041747 1.496107 -2.005637 0.026190 0.341735 -2.170938 -0.076925 0.249952 -2.298821 -0.061158 0.464259 -2.996180 -0.069422 -0.691330 -2.023199 -0.380078 -0.630448 -2.102660 -0.011570 -0.677793 -2.413174 -0.014276 0.198154 -18.374664 0.460771 4.766958 35.364277 -8.807595 -0.461688 -12.660103 1.445965 -0.051809 -1.029628 0.408214 -0.107961 -1.724447 -0.026407 0.000000 0.000000 0.000000 0.000000 0.000000 0.000000 -1.130378 -1.578137 -0.015569 -1.925959 -2.577280 -0.041747 -1.731419 -2.320678 -0.035072 -0.397887 -2.529191 0.088382 -0.320582 -2.942752 0.074615 -0.491292 -3.171166 0.072730 0.732708 -2.164138 0.381831 0.941150 -3.137101 0.025772 0.842780 -2.999576 0.022066 -0.486605 0.009375 6.768095 
0.000000 -2.027783 0.000000 -0.704089 0.911931 0.011207 1.969340 -5.854522 3.341284 -1.035109 8.984850 9.032210 -3.087893 0.907387 4.875667 1.161236 -8.564925 3.887719 -7.590867 -2.838237 -4.578027 0.000000 0.000000 0.000000 0.000000 0.000000 0.000000 -0.166051 4.117996 2.793647 -4.599675 5.937839 5.218653 -4.912417 11.746058 12.334194 3.162650 1.702026 -0.773399 0.620265 3.191984 -3.321245 0.170418 7.270655 -8.268967 -1.585816 -23.874838 -3.763067 -2.618213 25.405069 6.037576 0.135923 -1.968378 -0.196089 0.981792 4.642767 -0.942592 0.000000 0.000000 0.000000 0.068851 -1.406264 0.012907 0.000000 0.000000 0.000000 1.734360 -2.420326 0.036640 3.151564 -4.211812 0.113587 2.479731 -3.321228 0.071902 0.560863 -3.570957 -0.119721 0.411514 -3.789255 -0.094712 0.760601 -4.915849 -0.101218 -1.129116 -3.337895 -0.595199 -1.031042 -3.436020 -0.030926 -1.117402 -3.974141 -0.038769 0.802444 -16.251005 -0.898519 4.996361 35.585526 -9.206251 -0.463267 -12.831781 1.468422 -0.073030 -1.523904 0.619777 -0.176408 -2.810183 -0.044718 0.000000 0.000000 0.000000 0.000000 0.000000 0.000000 -1.873982 -2.614843 -0.042773 -3.151564 -4.211812 -0.113587 -2.864154 -3.834273 -0.095891 -0.652038 -4.154848 0.136001 -0.526220 -4.838689 0.113309 -0.804604 -5.201036 0.105099 1.196724 -3.567544 0.599869 1.539165 -5.121507 0.068841 1.387300 -4.929615 0.059720 -0.826647 -0.343774 11.034093 
0.000000 -2.072282 0.000000 -1.000262 1.312300 0.022910 2.812593 -8.131756 4.827733 -1.506861 12.756651 12.923078 -4.388359 1.147239 6.942317 1.665989 -11.881497 5.620308 -10.836768 -3.981536 -6.633342 0.000000 0.000000 0.000000 0.000000 0.000000 0.000000 -0.297866 6.082893 3.968853 -6.871480 8.498725 7.437051 -7.896098 16.878422 17.962183 4.436219 2.659560 -1.086170 1.141604 4.587805 -4.708687 0.732118 10.562684 -12.020483 -2.606984 -24.801706 -4.353287 -2.083672 21.600975 5.305712 -0.045600 2.074306 0.288944 1.374278 6.858661 -1.328233 0.000000 0.000000 0.000000 0.097908 -1.997529 0.018841 0.000000 0.000000 0.000000 2.518195 -3.511273 0.077198 4.501100 -6.001922 0.233170 3.594764 -4.807079 0.150937 0.803913 -5.128805 -0.161111 0.592049 -5.455783 -0.126485 1.088332 -7.039203 -0.124867 -1.608781 -4.810980 -0.802271 -1.471270 -4.896763 -0.062913 -1.609980 -5.715809 -0.080377 1.454179 -14.000054 -2.421246 5.307749 36.075493 -9.681776 -0.472859 -13.354883 1.530590 -0.084587 -1.901955 0.802779 -0.251378 -3.991693 -0.066145 0.000000 0.000000 0.000000 0.000000 0.000000 0.000000 -2.716944 -3.787423 -0.089849 -4.501100 -6.001922 -0.233170 -4.143152 -5.534965 -0.200364 -0.933111 -5.958293 0.180482 -0.754693 -6.946541 0.147629 -1.150927 -7.444322 0.128000 1.705237 -5.137117 0.811742 2.197254 -7.290289 0.139995 1.995843 -7.072667 0.123354 -1.207581 -1.070213 15.669990 
